<?xml version="1.0" encoding="utf-8"?>
<!-- Generator: Adobe Illustrator 27.9.1, SVG Export Plug-In . SVG Version: 6.00 Build 0)  -->
<svg version="1.1" id="Layer_1" xmlns="http://www.w3.org/2000/svg" xmlns:xlink="http://www.w3.org/1999/xlink" x="0px" y="0px"
	 viewBox="0 0 906 686.4" style="enable-background:new 0 0 906 686.4;" xml:space="preserve">
<style type="text/css">
	.st0{enable-background:new    ;}
	.st1{font-family:'NotoSans-Regular';}
	.st2{font-size:12px;}
	.st3{fill:none;stroke:#000000;stroke-width:10;stroke-linecap:round;stroke-opacity:0.5;}
	.st4{fill:none;stroke:#000000;stroke-width:8.2;stroke-linecap:round;stroke-opacity:0.5;}
	.st5{fill:none;stroke:#000000;stroke-linecap:round;stroke-opacity:0.5;}
	.st6{fill:none;stroke:#000000;stroke-width:2.8;stroke-linecap:round;stroke-opacity:0.5;}
	.st7{fill:none;stroke:#000000;stroke-width:4.6;stroke-linecap:round;stroke-opacity:0.5;}
</style>
<g>
	<text transform="matrix(1 0 0 1 92.3263 64.0155)" class="st0"><tspan x="0" y="0" class="st1 st2">Agriculture and  </tspan><tspan x="12.2" y="14.4" class="st1 st2">pastoralism</tspan></text>
	<text transform="matrix(1 0 0 1 140.9662 24.0155)" class="st0"><tspan x="0" y="0" class="st1 st2">Pollution and waste  </tspan><tspan x="19.1" y="14.4" class="st1 st2">management</tspan></text>
	<text transform="matrix(1 0 0 1 217.2939 64.0155)" class="st0"><tspan x="0" y="0" class="st1 st2">Environmental </tspan><tspan x="13.2" y="14.4" class="st1 st2">monitorig</tspan></text>
	<text transform="matrix(1 0 0 1 282.6383 24.0155)" class="st0"><tspan x="0" y="0" class="st1 st2">Disaster risk  </tspan><tspan x="-1.7" y="14.4" class="st1 st2">management</tspan></text>
	<text transform="matrix(1 0 0 1 356.2483 64.0155)" class="st1 st2">Trousim</text>
	<text transform="matrix(1 0 0 1 421.3428 24.0155)" class="st1 st2">Gender</text>
	<text transform="matrix(1 0 0 1 457.0122 64.0155)" class="st1 st2">Misinformation</text>
	<text transform="matrix(1 0 0 1 529.3023 24.0155)" class="st0"><tspan x="0" y="0" class="st1 st2">Operations </tspan><tspan x="9.3" y="14.4" class="st1 st2">support</tspan></text>
	<text transform="matrix(1 0 0 1 593.3 64.0155)" class="st1 st2">Education</text>
	<text transform="matrix(1 0 0 1 647.8504 24.0155)" class="st0"><tspan x="0" y="0" class="st1 st2">Democratic  </tspan><tspan x="0.6" y="14.4" class="st1 st2">governance</tspan></text>
	<text transform="matrix(1 0 0 1 723.0444 64.0155)" class="st0"><tspan x="0" y="0" class="st1 st2">Urban  </tspan><tspan x="-18.1" y="14.4" class="st1 st2">development</tspan></text>
	<text transform="matrix(1 0 0 1 162.8804 356.0155)" class="st1 st2">Remote sensing</text>
	<text transform="matrix(1 0 0 1 303.7563 356.0155)" class="st1 st2">Online posts</text>
	<text transform="matrix(1 0 0 1 407.7461 356.0155)" class="st1 st2">Pre-trained AI models</text>
	<text transform="matrix(1 0 0 1 562.8462 356.0155)" class="st1 st2">Network data</text>
	<text transform="matrix(1 0 0 1 83.2344 668.0155)" class="st1 st2">Cameroon</text>
	<text transform="matrix(1 0 0 1 116.6102 638.0155)" class="st1 st2">Cabo verde</text>
	<text transform="matrix(1 0 0 1 153.3268 668.0155)" class="st1 st2">Guatemala</text>
	<text transform="matrix(1 0 0 1 202.2722 638.0155)" class="st1 st2">Serbia</text>
	<text transform="matrix(1 0 0 1 232.35 668.0155)" class="st1 st2">Vietnam</text>
	<text transform="matrix(1 0 0 1 279.5442 638.0155)" class="st0"><tspan x="0" y="0" class="st1 st2">The  </tspan><tspan x="-15.2" y="14.4" class="st1 st2">Philipines</tspan></text>
	<text transform="matrix(1 0 0 1 312.8861 668.0155)" class="st1 st2">India</text>
	<text transform="matrix(1 0 0 1 344.3441 638.0155)" class="st1 st2">Bolivia</text>
	<text transform="matrix(1 0 0 1 376.2698 668.0155)" class="st1 st2">Somalia</text>
	<text transform="matrix(1 0 0 1 418.7722 638.0155)" class="st1 st2">Niger</text>
	<text transform="matrix(1 0 0 1 447.0442 668.0155)" class="st1 st2">Ecuador</text>
	<text transform="matrix(1 0 0 1 475.0585 637.9377)" class="st1 st2">Mauritania</text>
	<text transform="matrix(1 0 0 1 511.0437 668.0155)" class="st1 st2">Kyrgyzstan</text>
	<text transform="matrix(1 0 0 1 558.8226 638.0155)" class="st1 st2">Jordan</text>
	<text transform="matrix(1 0 0 1 593.0463 668.0155)" class="st1 st2">Malawi</text>
	<text transform="matrix(1 0 0 1 623.514 638.0155)" class="st1 st2">Tanzania</text>
	<text transform="matrix(1 0 0 1 660.136 668.0155)" class="st1 st2">Uruguay</text>
	<text transform="matrix(1 0 0 1 692.7346 638.0155)" class="st1 st2">Guatmala</text>
	<text transform="matrix(1 0 0 1 727.3454 668.0155)" class="st1 st2">Argentina</text>
	<text transform="matrix(1 0 0 1 775.0897 638.0155)" class="st0"><tspan x="0" y="0" class="st1 st2">North </tspan><tspan x="-14.5" y="14.4" class="st1 st2">Macedonia</tspan></text>
	<path class="st3" d="M137.6,94c0,131,70.5,131,70.5,262"/>
	<path class="st4" d="M198,54c0,171,10.1,171,10.1,302"/>
	<path class="st5" d="M258.5,94c0,131-50.4,131-50.4,262"/>
	<path class="st6" d="M318.9,54c0,171-110.8,171-110.8,302"/>
	<path class="st7" d="M379.4,79c0,146-40.3,146-40.3,277"/>
	<path class="st6" d="M439.9,39c0,186-100.8,186-100.8,317"/>
	<path class="st5" d="M500.3,79c0,146-161.2,146-161.2,277"/>
	<path class="st5" d="M560.8,54c0,171-90.7,171-90.7,302"/>
	<path class="st5" d="M621.3,79c0,146-151.2,146-151.2,277"/>
	<path class="st5" d="M681.7,54c0,171-211.6,171-211.6,302"/>
	<path class="st5" d="M439.9,39c0,186,30.2,186,30.2,317"/>
	<path class="st5" d="M742.2,94c0,131-272.1,131-272.1,262"/>
	<path class="st5" d="M439.9,39c0,186,161.2,186,161.2,317"/>
	<path class="st5" d="M208.1,356c0,131-95.3,131-95.3,292"/>
	<path class="st5" d="M208.1,356c0,131-59.5,131-59.5,262"/>
	<path class="st5" d="M208.1,356c0,131-23.8,131-23.8,292"/>
	<path class="st5" d="M208.1,356c0,131,11.9,131,11.9,262"/>
	<path class="st5" d="M208.1,356c0,131,47.6,131,47.6,292"/>
	<path class="st5" d="M208.1,356c0,131,83.4,131,83.4,262"/>
	<path class="st6" d="M208.1,356c0,131,119.1,131,119.1,292"/>
	<path class="st5" d="M208.1,356c0,131,154.8,131,154.8,262"/>
	<path class="st5" d="M208.1,356c0,131,190.5,131,190.5,292"/>
	<path class="st5" d="M208.1,356c0,131,226.3,131,226.3,262"/>
	<path class="st5" d="M208.1,356c0,131,262,131,262,292"/>
	<path class="st5" d="M208.1,356c0,131,297.7,131,297.7,262"/>
	<path class="st5" d="M208.1,356c0,131,333.5,131,333.5,292"/>
	<path class="st6" d="M339.1,356c0,131,238.2,131,238.2,262"/>
	<path class="st5" d="M339.1,356c0,131,273.9,131,273.9,292"/>
	<path class="st5" d="M339.1,356c0,131,309.6,131,309.6,262"/>
	<path class="st5" d="M339.1,356c0,131,202.5,131,202.5,292"/>
	<path class="st5" d="M339.1,356c0,131,345.4,131,345.4,292"/>
	<path class="st5" d="M470.1,356c0,131,250.1,131,250.1,262"/>
	<path class="st5" d="M470.1,356c0,131-357.3,131-357.3,292"/>
	<path class="st5" d="M470.1,356c0,131,285.8,131,285.8,292"/>
	<path class="st5" d="M470.1,356c0,131-250.1,131-250.1,262"/>
	<path class="st5" d="M470.1,356c0,131,321.5,131,321.5,262"/>
	<path class="st5" d="M601.1,356c0,131-381.1,131-381.1,262"/>
</g>
</svg>
